<?xml version="1.0" encoding="UTF-8"?>
<svg version="1.1" xmlns="http://www.w3.org/2000/svg" width="768" height="297">
<path d="M0 0 C0.78632813 -0.020625 1.57265625 -0.04125 2.3828125 -0.0625 C11.18005724 -0.12095345 17.84162044 3.25758017 24.25 9.25 C31.85492618 18.46656617 33.11940253 27.51306588 32.25 39.25 C30.44669 48.04113624 24.80515681 54.04627532 18.16796875 59.625 C15.71851093 61.70030438 13.48872542 63.95076848 11.25 66.25 C9.58333333 67.91666667 7.91666667 69.58333333 6.25 71.25 C5.53545654 71.96599365 4.82091309 72.6819873 4.0847168 73.41967773 C1.24943608 76.25508915 -1.60006637 79.07605797 -4.44902039 81.89772034 C-7.48419134 84.90613153 -10.51407561 87.91984345 -13.54370117 90.93383789 C-15.1431658 92.52318862 -16.74441272 94.11074766 -18.34741211 95.6965332 C-20.66731478 97.99221333 -22.98073007 100.29426027 -25.29296875 102.59765625 C-26.0106694 103.30503433 -26.72837006 104.01241241 -27.46781921 104.7412262 C-28.13223526 105.40549118 -28.79665131 106.06975616 -29.48120117 106.75415039 C-30.06568527 107.33419327 -30.65016937 107.91423615 -31.25236511 108.51185608 C-34.08481437 111.79917564 -35.10428253 114.49269518 -34.8125 118.8125 C-33.55715453 128.65325418 -26.15538398 136.15553157 -20.015625 143.49609375 C-10.28187354 155.32763647 -1.09501392 166.8083561 -1.8125 182.75 C-2.80300457 190.97701441 -6.42480687 197.87358584 -12.75 203.25 C-13.47977051 203.87704834 -14.20954102 204.50409668 -14.96142578 205.15014648 C-18.09198984 207.50752535 -21.3643367 209.2546549 -24.8671875 210.97265625 C-25.89478683 211.48532295 -25.89478683 211.48532295 -26.94314575 212.00834656 C-29.16745883 213.11583405 -31.39606095 214.21435664 -33.625 215.3125 C-35.17465019 216.08136113 -36.7241281 216.85056957 -38.2734375 217.62011719 C-47.63195088 222.25969114 -57.02791032 226.816456 -66.46826172 231.28735352 C-74.72314359 235.20579133 -82.88437026 239.30277486 -91.04736328 243.40844727 C-99.13475611 247.46662208 -107.27081177 251.40969826 -115.453125 255.27270508 C-120.13862545 257.49200155 -124.78340676 259.76295922 -129.3828125 262.15625 C-130.28660645 262.62329346 -131.19040039 263.09033691 -132.12158203 263.5715332 C-133.81906054 264.45369856 -135.51066444 265.34730474 -137.19482422 266.25463867 C-142.00989081 268.74988553 -145.32000924 269.74823053 -150.75 269.25 C-151.10546875 266.578125 -151.10546875 266.578125 -150.75 263.25 C-148.86586405 261.17053895 -147.25745629 259.66744628 -145.0625 258 C-144.53205078 257.566875 -144.00160156 257.13375 -143.45507812 256.6875 C-140.36008315 254.22669418 -137.43611304 252.62157695 -133.75 251.25 C-131.59207321 248.2289025 -131.06830442 244.91050081 -130.75 241.25 C-132.58821244 239.04198743 -132.58821244 239.04198743 -135.25 238.75 C-144.57664754 240.08237822 -152.73969504 248.02925722 -160.15332031 253.4909668 C-173.50878634 263.3028176 -173.50878634 263.3028176 -177.6875 263.125 C-179.75 262.25 -179.75 262.25 -180.75 261.25 C-180.98529412 255.72058824 -180.98529412 255.72058824 -179.75 253.25 C-179.09 253.25 -178.43 253.25 -177.75 253.25 C-177.75 252.59 -177.75 251.93 -177.75 251.25 C-176.28309441 249.9172812 -174.74677499 248.66086131 -173.1875 247.4375 C-168.49053082 243.68113056 -163.90579832 239.83003248 -159.375 235.875 C-153.49076672 230.74367206 -147.54868299 225.69012219 -141.5546875 220.6875 C-138.82497898 218.31516279 -136.27481733 215.83771313 -133.75 213.25 C-133.42 212.92 -133.09 212.59 -132.75 212.25 C-132.49994614 209.29182893 -132.49994614 209.29182893 -132.75 206.25 C-134.70354665 203.82966759 -134.70354665 203.82966759 -138.35546875 204.21484375 C-143.78459029 205.05583732 -147.07841757 208.24410407 -151.0625 211.8125 C-152.55303467 213.08917182 -154.0452221 214.36391656 -155.5390625 215.63671875 C-156.25739258 216.25595215 -156.97572266 216.87518555 -157.71582031 217.51318359 C-160.39940208 219.80447029 -163.12806313 221.98905827 -165.9375 224.125 C-166.73542969 224.74117187 -167.53335938 225.35734375 -168.35546875 225.9921875 C-171.33567435 227.55764623 -173.42940642 227.55998469 -176.75 227.25 C-177.75 226.25 -177.75 226.25 -178.14990234 224.05981445 C-177.57435921 220.01590364 -175.17525077 218.01462927 -172.3515625 215.29296875 C-171.52632584 214.47122917 -171.52632584 214.47122917 -170.68441772 213.63288879 C-169.52168989 212.47988896 -168.35295527 211.33291937 -167.17871094 210.19165039 C-165.37622239 208.4386888 -163.59320754 206.66763496 -161.8125 204.89257812 C-160.6807775 203.77493686 -159.54800031 202.65836234 -158.4140625 201.54296875 C-157.87754059 201.01180954 -157.34101868 200.48065033 -156.78823853 199.93339539 C-152.98326946 196.25 -152.98326946 196.25 -150.75 196.25 C-150.42 195.26 -150.09 194.27 -149.75 193.25 C-149.09 193.25 -148.43 193.25 -147.75 193.25 C-147.75 192.59 -147.75 191.93 -147.75 191.25 C-146.40209961 189.91894531 -146.40209961 189.91894531 -144.46484375 188.328125 C-139.32993885 183.959438 -134.56497734 179.2510693 -129.80200195 174.48730469 C-128.2958992 172.98342369 -126.78191645 171.48777015 -125.26757812 169.9921875 C-124.3042004 169.03173834 -123.34129191 168.07081823 -122.37890625 167.109375 C-121.0806189 165.81725098 -121.0806189 165.81725098 -119.75610352 164.49902344 C-117.23652111 161.67434373 -116.80461342 159.80705687 -116.4375 156.0625 C-117.19989752 146.7612502 -123.86518546 139.97154027 -129.43310547 132.93017578 C-132.25862456 129.32520315 -134.97757816 125.63990816 -137.7109375 121.96484375 C-138.96533353 120.29471876 -140.2377062 118.63770509 -141.5390625 117.00390625 C-147.9318877 108.92627244 -150.57224294 100.21547852 -149.5 89.828125 C-147.76515018 80.84408129 -143.77944477 74.08691481 -136.75 68.25 C-132.9772126 65.83815597 -129.04385605 63.79447206 -125.0625 61.75 C-123.3219921 60.83488379 -121.58149479 59.91974691 -119.84155273 59.0035553 C-118.02713562 58.05027515 -116.20987734 57.10259678 -114.39208984 56.15576172 C-108.52510069 53.0938479 -102.7037723 49.94633243 -96.875 46.8125 C-94.54196051 45.56195164 -92.20862504 44.31195532 -89.875 43.0625 C-89.29402054 42.75139786 -88.71304108 42.44029572 -88.11445618 42.11976624 C-84.45535836 40.16098459 -80.79420234 38.20609607 -77.13183594 36.25343323 C-74.04553093 34.60775257 -70.96004643 32.96053868 -67.875 31.3125 C-67.27977539 30.99459503 -66.68455078 30.67669006 -66.07128906 30.34915161 C-59.62157668 26.90144401 -53.19682918 23.42750046 -46.875 19.75 C-41.47648374 16.61494175 -35.96225196 13.80542121 -30.359375 11.0546875 C-25.7228404 8.76209315 -21.17784903 6.29812089 -16.63500977 3.82617188 C-10.89485402 0.72330096 -6.45613074 0.04151853 0 0 Z " fill="#02092F" transform="translate(227.75,-0.25)"/>
<path d="M0 0 C1.01795654 -0.00637985 2.03591309 -0.0127597 3.0847168 -0.01933289 C4.16406494 -0.02044571 5.24341309 -0.02155853 6.35546875 -0.02270508 C7.48315674 -0.02603348 8.61084473 -0.02936188 9.77270508 -0.03279114 C12.14957269 -0.03783855 14.52644735 -0.04020014 16.90332031 -0.04003906 C20.53071771 -0.04222893 24.15781244 -0.06041744 27.78515625 -0.0793457 C30.10025938 -0.08227943 32.41536395 -0.08426437 34.73046875 -0.08520508 C35.80981689 -0.09239059 36.88916504 -0.09957611 38.0012207 -0.10697937 C43.53970483 -0.09024009 48.37631877 0.04565667 53.54296875 2.14526367 C56.89136958 7.16786491 56.02952659 12.47045174 54.97558594 18.2644043 C54.19324059 21.66369992 53.32863892 25.02809972 52.41796875 28.39526367 C52.10102051 29.58587402 51.78407227 30.77648437 51.45751953 32.00317383 C44.69397816 56.72846374 44.69397816 56.72846374 35.41796875 62.45776367 C33.54296875 63.14526367 33.54296875 63.14526367 30.54296875 63.14526367 C30.86910156 64.30541992 31.19523438 65.46557617 31.53125 66.66088867 C33.51170309 73.72776375 35.49121856 80.79677255 37.35546875 87.89526367 C37.58878906 88.77698242 37.82210937 89.65870117 38.0625 90.56713867 C38.54296875 93.14526367 38.54296875 93.14526367 38.54296875 99.14526367 C28.97296875 99.14526367 19.40296875 99.14526367 9.54296875 99.14526367 C5.10105531 76.04731379 5.10105531 76.04731379 3.54296875 66.14526367 C2.88296875 66.14526367 2.22296875 66.14526367 1.54296875 66.14526367 C1.45660156 66.69569336 1.37023437 67.24612305 1.28125 67.81323242 C0.11794738 74.69699565 -1.41555043 81.47845224 -3.01953125 88.27026367 C-3.2414917 89.21925537 -3.46345215 90.16824707 -3.69213867 91.14599609 C-4.01081909 92.47981323 -4.01081909 92.47981323 -4.3359375 93.84057617 C-4.62319702 95.04738037 -4.62319702 95.04738037 -4.91625977 96.27856445 C-5.45703125 98.14526367 -5.45703125 98.14526367 -6.45703125 99.14526367 C-8.60261952 99.23301972 -10.75107546 99.25221586 -12.8984375 99.24291992 C-14.20361328 99.23969727 -15.50878906 99.23647461 -16.85351562 99.2331543 C-18.24218815 99.22479768 -19.63086002 99.21633272 -21.01953125 99.20776367 C-22.41210781 99.20275033 -23.80468606 99.19818714 -25.19726562 99.1940918 C-28.61722995 99.18225801 -32.03710969 99.16577247 -35.45703125 99.14526367 C-33.96890005 90.10846817 -31.86662557 81.24432698 -29.68359375 72.35620117 C-29.31459105 70.84330422 -28.94589409 69.33033266 -28.57748413 67.81729126 C-27.61186865 63.85468445 -26.6425591 59.89299112 -25.67230225 55.93151855 C-24.31435096 50.38429246 -22.96141165 44.83584157 -21.60800171 39.2875061 C-20.89029071 36.3452606 -20.17118651 33.40336183 -19.45083618 30.46176147 C-17.06368697 20.70251935 -14.74398759 10.92845517 -12.45703125 1.14526367 C-8.27485075 0.49532312 -4.23213533 0.01818481 0 0 Z M10.54296875 18.14526367 C8.02441869 27.09467458 5.84845897 35.9209446 4.54296875 45.14526367 C6.83438161 45.19910888 9.12615063 45.23798454 11.41796875 45.27026367 C12.69414062 45.2934668 13.9703125 45.31666992 15.28515625 45.34057617 C18.62890213 45.50167891 18.62890213 45.50167891 20.54296875 43.14526367 C21.28135792 40.97836415 21.28135792 40.97836415 21.83203125 38.46166992 C22.05117188 37.53418945 22.2703125 36.60670898 22.49609375 35.65112305 C22.82867188 34.19416016 22.82867188 34.19416016 23.16796875 32.70776367 C23.39742187 31.74032227 23.626875 30.77288086 23.86328125 29.77612305 C25.12534619 24.51470214 25.12534619 24.51470214 25.54296875 19.14526367 C22.65880992 17.70318426 20.12575347 18.0513148 16.91796875 18.08276367 C15.13519531 18.09629883 15.13519531 18.09629883 13.31640625 18.11010742 C11.94355469 18.12750977 11.94355469 18.12750977 10.54296875 18.14526367 Z " fill="#02092F" transform="translate(495.45703125,91.854736328125)"/>
<path d="M0 0 C1.02463852 -0.0159874 2.04927704 -0.03197479 3.10496521 -0.04844666 C4.20607132 -0.05380936 5.30717743 -0.05917206 6.44165039 -0.06469727 C7.57832657 -0.07372574 8.71500275 -0.08275421 9.88612366 -0.09205627 C12.28929001 -0.1065592 14.69249585 -0.11544561 17.09570312 -0.11914062 C20.77224096 -0.13104824 24.44710679 -0.18024629 28.12329102 -0.23071289 C30.45856928 -0.24017581 32.79385786 -0.24741147 35.12915039 -0.25219727 C36.22823227 -0.27172958 37.32731415 -0.2912619 38.45970154 -0.31138611 C46.08180826 -0.26631361 46.08180826 -0.26631361 50.06103516 2.69335938 C52.09409792 5.65994026 52.37553171 6.67898506 51.85180664 10.18139648 C51.71774414 11.12499023 51.58368164 12.06858398 51.44555664 13.04077148 C51.24961914 14.11842773 51.05368164 15.19608398 50.85180664 16.30639648 C50.73708008 16.95157227 50.62235352 17.59674805 50.50415039 18.26147461 C48.22138757 30.93681556 48.22138757 30.93681556 46.85180664 32.30639648 C45.19142973 32.40579779 43.52687384 32.43719785 41.86352539 32.43920898 C40.33888672 32.44114258 40.33888672 32.44114258 38.78344727 32.44311523 C37.17759766 32.43731445 37.17759766 32.43731445 35.53930664 32.43139648 C34.4803418 32.43526367 33.42137695 32.43913086 32.33032227 32.44311523 C30.79988281 32.44118164 30.79988281 32.44118164 29.23852539 32.43920898 C28.30226318 32.43808105 27.36600098 32.43695313 26.40136719 32.43579102 C23.85180664 32.30639648 23.85180664 32.30639648 19.85180664 31.30639648 C20.18180664 27.67639648 20.51180664 24.04639648 20.85180664 20.30639648 C18.54180664 20.30639648 16.23180664 20.30639648 13.85180664 20.30639648 C11.87180664 26.90639648 9.89180664 33.50639648 7.85180664 40.30639648 C9.89883789 40.2715918 11.94586914 40.23678711 14.05493164 40.20092773 C16.04401557 40.18006322 18.03310224 40.15930671 20.0222168 40.14160156 C21.40151882 40.12654227 22.78077317 40.10609035 24.15991211 40.08007812 C26.14554067 40.04357234 28.13152282 40.02824795 30.11743164 40.01342773 C31.31142578 39.99771729 32.50541992 39.98200684 33.7355957 39.96582031 C37.12413435 40.33615966 38.51666202 40.85266614 40.85180664 43.30639648 C41.82694574 50.83912241 39.61388502 58.34080886 38.03930664 65.68139648 C37.64775391 67.57631836 37.64775391 67.57631836 37.24829102 69.50952148 C32.83665388 90.46752113 32.83665388 90.46752113 26.85180664 96.30639648 C23.85145918 98.13834153 21.58116208 98.56776558 18.08666992 98.61279297 C16.67467819 98.63677406 16.67467819 98.63677406 15.23416138 98.66123962 C13.71845047 98.66928368 13.71845047 98.66928368 12.17211914 98.67749023 C11.12659882 98.68651871 10.08107849 98.69554718 9.00387573 98.70484924 C6.79322166 98.71934922 4.5825247 98.72823785 2.37182617 98.73193359 C-1.00407462 98.74382912 -4.37814703 98.79301844 -7.75366211 98.84350586 C-9.90339279 98.85297044 -12.05313467 98.8602053 -14.20288086 98.86499023 C-15.20930634 98.88452255 -16.21573181 98.90405487 -17.25265503 98.92417908 C-21.83235203 98.89480676 -25.12457087 98.84212919 -28.78686523 95.90356445 C-31.93251136 92.44374399 -31.93251136 92.44374399 -31.77319336 88.99389648 C-31.43437691 83.26007967 -30.33574521 70.49394834 -26.14819336 66.30639648 C-24.14854354 66.21881646 -22.14583226 66.19943072 -20.14428711 66.20874023 C-18.321875 66.21357422 -18.321875 66.21357422 -16.46264648 66.21850586 C-15.18325195 66.22688477 -13.90385742 66.23526367 -12.58569336 66.24389648 C-11.30243164 66.2484082 -10.01916992 66.25291992 -8.69702148 66.25756836 C-5.51403314 66.26940103 -2.33113574 66.2858858 0.85180664 66.30639648 C0.52180664 69.93639648 0.19180664 73.56639648 -0.14819336 77.30639648 C2.49180664 77.63639648 5.13180664 77.96639648 7.85180664 78.30639648 C8.52280648 75.70327656 9.18876002 73.09904251 9.85180664 70.49389648 C10.13797852 69.38691406 10.13797852 69.38691406 10.42993164 68.25756836 C11.20443578 65.20104308 11.85180664 62.47266171 11.85180664 59.30639648 C10.99425781 59.29705078 10.13670898 59.28770508 9.25317383 59.27807617 C6.06207985 59.23398357 2.87193908 59.17233592 -0.31860352 59.09887695 C-1.69770987 59.07070549 -3.07697654 59.04947177 -4.45629883 59.03540039 C-6.44242285 59.01392104 -8.42819245 58.96516516 -10.41381836 58.91577148 C-11.6078125 58.89482422 -12.80180664 58.87387695 -14.03198242 58.85229492 C-17.75515728 58.20006843 -18.96683233 57.36136084 -21.14819336 54.30639648 C-23.1205474 46.03725607 -19.91272543 36.40544931 -17.94995117 28.3347168 C-17.39674803 26.05042844 -16.86899159 23.76126362 -16.34350586 21.47045898 C-15.99344081 19.99354075 -15.64192812 18.51696473 -15.28881836 17.04077148 C-15.13447327 16.36769958 -14.98012817 15.69462769 -14.82110596 15.00115967 C-13.58181559 10.0035577 -11.86836295 4.07506954 -7.33769226 1.12919617 C-4.76968497 0.16415545 -2.74245321 0.0324281 0 0 Z " fill="#02092F" transform="translate(290.148193359375,92.693603515625)"/>
<path d="M0 0 C11.22 0 22.44 0 34 0 C34 32.67 34 65.34 34 99 C24.76 99 15.52 99 6 99 C6 94.38 6 89.76 6 85 C-1.26 85 -8.52 85 -16 85 C-16.99 88.3 -17.98 91.6 -19 95 C-19.66 96.32 -20.32 97.64 -21 99 C-29.91 99 -38.82 99 -48 99 C-47.24682168 95.23410841 -46.72902184 93.08421151 -45.09544373 89.8301239 C-44.69860382 89.0323201 -44.30176392 88.2345163 -43.89289856 87.41253662 C-43.45700912 86.55154358 -43.02111969 85.69055054 -42.57202148 84.8034668 C-41.88417572 83.42711815 -41.88417572 83.42711815 -41.18243408 82.02296448 C-39.66765959 78.9955029 -38.14443233 75.9723789 -36.62109375 72.94921875 C-35.56824826 70.84912386 -34.51593288 68.74876313 -33.46412659 66.64814758 C-30.69601842 61.12337887 -27.92072141 55.60225198 -25.1439209 50.08184814 C-22.31100458 44.44671777 -19.4848895 38.80817912 -16.65820312 33.16992188 C-11.11212522 22.10992886 -5.55782431 11.05409494 0 0 Z M8 36 C3.28878792 45.21199781 -1.15486787 54.38716967 -5 64 C-0.71 64 3.58 64 8 64 C8.33 54.76 8.66 45.52 9 36 C8.67 36 8.34 36 8 36 Z " fill="#02092F" transform="translate(583,92)"/>
<path d="M0 0 C1.62215675 0.00333092 1.62215675 0.00333092 3.27708435 0.00672913 C4.49827469 0.00680466 5.71946503 0.00688019 6.97766113 0.00695801 C8.32022644 0.0120654 9.66279134 0.01728141 11.00535583 0.02259827 C12.37156116 0.02446252 13.73776716 0.02588639 15.10397339 0.02688599 C18.70596654 0.03071058 22.30791959 0.04054035 25.90989685 0.05158997 C29.58298703 0.06180536 33.25608368 0.06638388 36.92918396 0.07142639 C44.14079081 0.08216268 51.35236459 0.09923838 58.56394958 0.12025452 C58.27585214 1.78754186 57.9832518 3.45405122 57.68894958 5.12025452 C57.52652771 6.04837952 57.36410583 6.97650452 57.19676208 7.93275452 C56.45074743 11.69045797 55.49311344 15.40359908 54.56394958 19.12025452 C43.34394958 19.12025452 32.12394958 19.12025452 20.56394958 19.12025452 C20.23394958 22.09025452 19.90394958 25.06025452 19.56394958 28.12025452 C18.90394958 31.09025452 18.24394958 34.06025452 17.56394958 37.12025452 C27.13394958 37.45025452 36.70394958 37.78025452 46.56394958 38.12025452 C45.43894958 45.99525452 45.43894958 45.99525452 44.37254333 49.30384827 C44.17201355 49.93605286 43.97148376 50.56825745 43.76487732 51.21961975 C43.51294617 51.99120422 43.26101501 52.7627887 43.00144958 53.55775452 C42.19707458 56.05337952 41.39269958 58.54900452 40.56394958 61.12025452 C30.66394958 61.12025452 20.76394958 61.12025452 10.56394958 61.12025452 C9.90394958 65.08025452 9.24394958 69.04025452 8.56394958 73.12025452 C8.23394958 74.77025452 7.90394958 76.42025452 7.56394958 78.12025452 C17.79394958 78.12025452 28.02394958 78.12025452 38.56394958 78.12025452 C41.60441739 84.20119012 36.38357796 91.56959235 34.56394958 98.12025452 C14.43394958 98.12025452 -5.69605042 98.12025452 -26.43605042 98.12025452 C-25.76181765 92.72639242 -25.02577704 87.97083322 -23.73365784 82.76478577 C-23.56437271 82.07730759 -23.39508759 81.38982941 -23.22067261 80.68151855 C-22.66531259 78.43082668 -22.10347617 76.18180744 -21.54151917 73.93275452 C-21.14856991 72.3459386 -20.7560246 70.75902261 -20.36386108 69.17201233 C-19.33212539 65.00149811 -18.29485957 60.8323787 -17.25642395 56.66352844 C-16.21328627 52.4715616 -15.17551262 48.27826781 -14.13722229 44.08509827 C-10.65932272 30.04712303 -10.65932272 30.04712303 -9.00184917 23.40924072 C-8.09654228 19.78328062 -7.19932782 16.15559803 -6.31462097 12.52455139 C-6.13262555 11.78283691 -5.95063013 11.04112244 -5.7631197 10.27693176 C-5.41510365 8.85823282 -5.06980672 7.43886334 -4.72759533 6.01875305 C-3.28496804 0.16216095 -3.28496804 0.16216095 0 0 Z " fill="#02092F" transform="translate(420.43605041503906,92.87974548339844)"/>
<path d="M0 0 C1.06367294 0.00222061 2.12734589 0.00444122 3.22325134 0.00672913 C5.02500572 0.00684242 5.02500572 0.00684242 6.86315918 0.00695801 C8.17042465 0.01211929 9.47769012 0.01728058 10.8245697 0.02259827 C12.16835477 0.02446253 13.51214052 0.02588639 14.85592651 0.02688599 C18.39873622 0.0307105 21.94150515 0.0405402 25.48429871 0.05158997 C29.09706572 0.06180552 32.7098393 0.06638392 36.32261658 0.07142639 C43.41573225 0.08216254 50.50882019 0.09923816 57.60191345 0.12025452 C57.4854487 1.78753936 57.35821584 3.45407252 57.22691345 5.12025452 C57.15730408 6.04837952 57.0876947 6.97650452 57.01597595 7.93275452 C56.52452941 11.71596563 55.52718626 15.41916329 54.60191345 19.12025452 C43.38191345 19.12025452 32.16191345 19.12025452 20.60191345 19.12025452 C20.27191345 22.09025452 19.94191345 25.06025452 19.60191345 28.12025452 C18.94191345 31.09025452 18.28191345 34.06025452 17.60191345 37.12025452 C27.17191345 37.45025452 36.74191345 37.78025452 46.60191345 38.12025452 C45.47691345 45.99525452 45.47691345 45.99525452 44.4105072 49.30384827 C44.20997742 49.93605286 44.00944763 50.56825745 43.80284119 51.21961975 C43.55091003 51.99120422 43.29897888 52.7627887 43.03941345 53.55775452 C42.23503845 56.05337952 41.43066345 58.54900452 40.60191345 61.12025452 C30.70191345 61.12025452 20.80191345 61.12025452 10.60191345 61.12025452 C9.61191345 66.40025452 8.62191345 71.68025452 7.60191345 77.12025452 C17.83191345 77.45025452 28.06191345 77.78025452 38.60191345 78.12025452 C37.60191345 87.12025452 37.60191345 87.12025452 34.60191345 98.12025452 C14.47191345 98.12025452 -5.65808655 98.12025452 -26.39808655 98.12025452 C-25.77606566 93.14408745 -25.18091152 88.73978331 -24.01869202 83.94911194 C-23.60222916 82.21880989 -23.60222916 82.21880989 -23.17735291 80.45355225 C-22.87636688 79.22336868 -22.57538086 77.99318512 -22.26527405 76.72572327 C-21.94684442 75.41186247 -21.62874662 74.09792122 -21.31095886 72.78390503 C-20.64286713 70.0254754 -19.9718326 67.26778473 -19.29847717 64.51063538 C-18.45716468 61.06543628 -17.62143329 57.61891701 -16.78771591 54.17187309 C-13.43529449 40.31605447 -10.01840093 26.47767158 -6.46839905 12.67103577 C-6.1733548 11.51588974 -5.87831055 10.36074371 -5.57432556 9.17059326 C-5.30234344 8.12184525 -5.03036133 7.07309723 -4.75013733 5.99256897 C-4.5122348 5.07151871 -4.27433228 4.15046844 -4.02922058 3.20150757 C-3.15041936 0.3035372 -3.08155481 0.15452774 0 0 Z " fill="#02092F" transform="translate(710.3980865478516,92.87974548339844)"/>
<path d="M0 0 C21.78 0 43.56 0 66 0 C62 18 62 18 61 20 C54.07 20 47.14 20 40 20 C39.67 22.64 39.34 25.28 39 28 C38.68943489 29.58994704 38.35123297 31.1750375 37.97192383 32.75 C37.77095093 33.59362091 37.56997803 34.43724182 37.36291504 35.306427 C37.14647339 36.19530609 36.93003174 37.08418518 36.70703125 38 C36.48019653 38.9461618 36.25336182 39.89232361 36.01965332 40.86715698 C35.28826475 43.91249906 34.55056716 46.95627033 33.8125 50 C33.31052718 52.08343254 32.80881862 54.16692877 32.30737305 56.25048828 C28.94793122 70.18654306 25.52160213 84.10394837 22 98 C12.43 98 2.86 98 -7 98 C-5.87492009 88.99936075 -5.87492009 88.99936075 -4.98779297 85.55712891 C-4.69111473 84.39133049 -4.69111473 84.39133049 -4.38844299 83.20198059 C-4.17517868 82.38509262 -3.96191437 81.56820465 -3.7421875 80.7265625 C-3.51808701 79.85259323 -3.29398651 78.97862396 -3.06309509 78.07817078 C-2.33870311 75.25913858 -1.60707806 72.442045 -0.875 69.625 C-0.37562053 67.68911705 0.12348312 65.75316293 0.62231445 63.81713867 C4.31431112 49.51749425 8.09607466 35.2433317 12 21 C6.72 20.67 1.44 20.34 -4 20 C-3.41065754 12.81002196 -1.95852527 7.18125933 0 0 Z " fill="#02092F" transform="translate(634,93)"/>
<path d="M0 0 C1.12591553 0.00523682 2.25183105 0.01047363 3.41186523 0.01586914 C4.62680664 0.0190918 5.84174805 0.02231445 7.09350586 0.02563477 C8.37290039 0.03401367 9.65229492 0.04239258 10.97045898 0.05102539 C12.2537207 0.05553711 13.53698242 0.06004883 14.85913086 0.06469727 C18.04211921 0.07652994 21.22501661 0.09301471 24.40795898 0.11352539 C21.43414415 14.77269659 18.06361665 29.32848946 14.60693359 43.88061523 C13.70894707 47.66200162 12.81504507 51.44433764 11.92163086 55.22680664 C11.35090317 57.63701875 10.77994829 60.04717708 10.20874023 62.45727539 C9.94209061 63.58524536 9.67544098 64.71321533 9.40071106 65.87536621 C9.15342758 66.91495483 8.9061441 67.95454346 8.65136719 69.02563477 C8.43470901 69.93873413 8.21805084 70.8518335 7.99482727 71.79260254 C7.54110523 73.58696401 6.99324496 75.35766745 6.40795898 77.11352539 C16.30795898 77.11352539 26.20795898 77.11352539 36.40795898 77.11352539 C35.47983398 80.91883789 35.47983398 80.91883789 34.53295898 84.80102539 C34.24702881 85.98571411 34.24702881 85.98571411 33.95532227 87.19433594 C33.79789551 87.83153564 33.64046875 88.46873535 33.47827148 89.12524414 C33.32116699 89.76937256 33.1640625 90.41350098 33.00219727 91.07714844 C32.30193493 93.47685598 31.33635869 95.79252612 30.40795898 98.11352539 C11.26795898 98.11352539 -7.87204102 98.11352539 -27.59204102 98.11352539 C-26.46701137 89.11328827 -26.46701137 89.11328827 -25.60534668 85.7794342 C-25.41189163 85.02102234 -25.21843658 84.26261047 -25.01911926 83.48121643 C-24.70426826 82.27839272 -24.70426826 82.27839272 -24.38305664 81.05126953 C-24.16018478 80.18363983 -23.93731293 79.31601013 -23.70768738 78.42208862 C-22.97614222 75.57965732 -22.23742098 72.73914922 -21.49829102 69.89868164 C-20.98611324 67.91719624 -20.47427753 65.93562239 -19.96276855 63.95396423 C-18.89329396 59.81516396 -17.82037852 55.67727614 -16.74487305 51.54003906 C-15.36366384 46.22607699 -13.99005376 40.91018625 -12.61884308 35.59363651 C-11.56461163 31.50876454 -10.50694733 27.42478783 -9.44816589 23.34109306 C-8.94005789 21.38003317 -8.43290595 19.41872532 -7.92671204 17.45717049 C-7.22156619 14.7272193 -6.51194565 11.99847178 -5.80102539 9.27001953 C-5.48617439 8.04594139 -5.48617439 8.04594139 -5.16496277 6.7971344 C-3.42410073 0.14996768 -3.42410073 0.14996768 0 0 Z " fill="#02092F" transform="translate(357.592041015625,92.886474609375)"/>
<path d="M0 0 C2 2 2 2 2.6875 4.6875 C1.56429387 10.09931137 -2.56429083 12.06005323 -7 15 C-9.68636797 16.75893141 -12.38843751 18.48484179 -15.11328125 20.18359375 C-18.11254416 22.07081602 -21.05805492 24.02474839 -24 26 C-26 27.33333333 -28 28.66666667 -30 30 C-31.010625 30.680625 -32.02125 31.36125 -33.0625 32.0625 C-34.031875 32.701875 -35.00125 33.34125 -36 34 C-37.299375 34.86625 -37.299375 34.86625 -38.625 35.75 C-41 37 -41 37 -45 37 C-44.80139825 33.22656679 -44.04134359 32.04170679 -41.33203125 29.30859375 C-40.1689435 28.3393259 -38.99499593 27.38299282 -37.8125 26.4375 C-36.53084568 25.3793958 -35.24960739 24.32078751 -33.96875 23.26171875 C-32.98068359 22.45420166 -32.98068359 22.45420166 -31.97265625 21.63037109 C-29.4644417 19.55736902 -27.01648602 17.42018998 -24.56689453 15.27856445 C-6.04781872 -0.85668933 -6.04781872 -0.85668933 0 0 Z " fill="#03092D" transform="translate(45,260)"/>
<path d="M0 0 C1 1 1 1 1.44921875 3.734375 C1 7 1 7 -1.60546875 9.640625 C-2.78494693 10.53002348 -3.98014645 11.39882679 -5.1875 12.25 C-6.47033329 13.19753607 -7.75287845 14.14546233 -9.03515625 15.09375 C-9.69273926 15.57070312 -10.35032227 16.04765625 -11.02783203 16.5390625 C-12.95689787 17.96807091 -14.82391553 19.45089118 -16.68359375 20.96875 C-17.26278564 21.43635742 -17.84197754 21.90396484 -18.4387207 22.38574219 C-19.54376747 23.27976294 -20.64283918 24.18123165 -21.73510742 25.09082031 C-25.47386368 28.05209271 -25.47386368 28.05209271 -28.3671875 27.765625 C-28.90601562 27.51296875 -29.44484375 27.2603125 -30 27 C-29.42110619 23.71245489 -28.45171589 22.06327505 -26.0625 19.75 C-25.53785156 19.22921875 -25.01320313 18.7084375 -24.47265625 18.171875 C-23 17 -23 17 -21 17 C-21 16.34 -21 15.68 -21 15 C-19.53125 13.5546875 -19.53125 13.5546875 -17.5 11.875 C-13.67854884 8.66227557 -10.29767969 5.21026778 -6.95703125 1.50390625 C-4.47850651 -0.40074849 -3.0545234 -0.37475665 0 0 Z " fill="#04082C" transform="translate(49,226)"/>
<path d="M0 0 C0.67546875 0.27070313 1.3509375 0.54140625 2.046875 0.8203125 C1.875 3.09375 1.875 3.09375 1.046875 5.8203125 C-1.28125 7.734375 -1.28125 7.734375 -4.203125 9.4453125 C-5.15703125 10.01507813 -6.1109375 10.58484375 -7.09375 11.171875 C-8.03734375 11.71585937 -8.9809375 12.25984375 -9.953125 12.8203125 C-11.27570312 13.66722656 -11.27570312 13.66722656 -12.625 14.53125 C-14.953125 15.8203125 -14.953125 15.8203125 -17.953125 15.8203125 C-17.85541928 13.15294643 -17.44682334 11.36866244 -15.63867188 9.36035156 C-13.87797312 7.81073073 -12.06578612 6.37058761 -10.203125 4.9453125 C-9.58179687 4.43484375 -8.96046875 3.924375 -8.3203125 3.3984375 C-3.67980036 -0.2239032 -3.67980036 -0.2239032 0 0 Z " fill="#04082C" transform="translate(73.953125,267.1796875)"/>
</svg>
